<svg width="21" height="20" viewBox="0 0 21 20" fill="none" xmlns="http://www.w3.org/2000/svg">
<g clip-path="url(#clip0_24_1958)">
<path d="M19.424 9.7105C19.424 8.93163 19.3621 8.36326 19.2282 7.77384H10.5225V11.2893H15.6325C15.5296 12.1629 14.9732 13.4786 13.7369 14.3627L13.7195 14.4804L16.4721 16.6589L16.6628 16.6783C18.4143 15.0258 19.424 12.5944 19.424 9.7105Z" fill="#4285F4"/>
<path d="M10.5224 18.9729C13.0259 18.9729 15.1276 18.1308 16.6628 16.6783L13.7368 14.3627C12.9538 14.9205 11.9029 15.31 10.5224 15.31C8.07036 15.31 5.98924 13.6575 5.24738 11.3735L5.13864 11.383L2.27644 13.6459L2.23901 13.7522C3.76379 16.8467 6.89581 18.9729 10.5224 18.9729Z" fill="#34A853"/>
<path d="M5.2474 11.3735C5.05165 10.7841 4.93836 10.1525 4.93836 9.5C4.93836 8.84738 5.05165 8.21588 5.2371 7.62647L5.23191 7.50094L2.33385 5.20162L2.23903 5.2477C1.6106 6.53181 1.25 7.97382 1.25 9.5C1.25 11.0262 1.6106 12.4681 2.23903 13.7522L5.2474 11.3735Z" fill="#FBBC05"/>
<path d="M10.5224 3.68996C12.2635 3.68996 13.438 4.45831 14.1077 5.1004L16.7246 2.49009C15.1174 0.96391 13.0259 0.0271454 10.5224 0.0271454C6.89581 0.0271454 3.76379 2.15326 2.23901 5.2477L5.23708 7.62647C5.98924 5.34247 8.07036 3.68996 10.5224 3.68996Z" fill="#EB4335"/>
</g>
<defs>
<clipPath id="clip0_24_1958">
<rect x="1.25" width="18.1739" height="19" rx="9.08696" fill="white"/>
</clipPath>
</defs>
</svg>
