<svg width="25" height="24" viewBox="0 0 25 24" fill="none" xmlns="http://www.w3.org/2000/svg">
<path d="M7.38517 22H17.8652C20.6252 22 21.7252 20.31 21.8552 18.25L22.3752 9.99C22.5152 7.83 20.7952 6 18.6252 6C18.0152 6 17.4552 5.65 17.1752 5.11L16.4552 3.66C15.9952 2.75 14.7952 2 13.7752 2H11.4852C10.4552 2 9.25517 2.75 8.79517 3.66L8.07517 5.11C7.79517 5.65 7.23517 6 6.62517 6C4.45517 6 2.73517 7.83 2.87517 9.99L3.39517 18.25C3.51517 20.31 4.62517 22 7.38517 22Z" stroke="#7A7A7A" stroke-width="1.5" stroke-linecap="round" stroke-linejoin="round"/>
<path d="M11.125 8H14.125" stroke="#7A7A7A" stroke-width="1.5" stroke-linecap="round" stroke-linejoin="round"/>
<path d="M12.625 18C14.415 18 15.875 16.54 15.875 14.75C15.875 12.96 14.415 11.5 12.625 11.5C10.835 11.5 9.375 12.96 9.375 14.75C9.375 16.54 10.835 18 12.625 18Z" stroke="#7A7A7A" stroke-width="1.5" stroke-linecap="round" stroke-linejoin="round"/>
</svg>
