<svg width="25" height="24" viewBox="0 0 25 24" fill="none" xmlns="http://www.w3.org/2000/svg">
<path d="M4.3639 14.6604L2.84391 13.1404C2.22391 12.5204 2.22391 11.5004 2.84391 10.8804L4.3639 9.36039C4.6239 9.10039 4.8339 8.59038 4.8339 8.23038V6.08036C4.8339 5.20036 5.5539 4.48038 6.4339 4.48038H8.5839C8.9439 4.48038 9.4539 4.27041 9.7139 4.01041L11.2339 2.49039C11.8539 1.87039 12.8739 1.87039 13.4939 2.49039L15.0139 4.01041C15.2739 4.27041 15.7839 4.48038 16.1439 4.48038H18.2939C19.1739 4.48038 19.8939 5.20036 19.8939 6.08036V8.23038C19.8939 8.59038 20.1039 9.10039 20.3639 9.36039L21.8839 10.8804C22.5039 11.5004 22.5039 12.5204 21.8839 13.1404L20.3639 14.6604C20.1039 14.9204 19.8939 15.4304 19.8939 15.7904V17.9403C19.8939 18.8203 19.1739 19.5404 18.2939 19.5404H16.1439C15.7839 19.5404 15.2739 19.7504 15.0139 20.0104L13.4939 21.5304C12.8739 22.1504 11.8539 22.1504 11.2339 21.5304L9.7139 20.0104C9.4539 19.7504 8.9439 19.5404 8.5839 19.5404H6.4339C5.5539 19.5404 4.8339 18.8203 4.8339 17.9403V15.7904C4.8339 15.4204 4.6239 14.9104 4.3639 14.6604Z" stroke="#7A7A7A" stroke-width="1.5" stroke-linecap="round" stroke-linejoin="round"/>
<path d="M9.375 15L15.375 9" stroke="#7A7A7A" stroke-width="1.5" stroke-linecap="round" stroke-linejoin="round"/>
<path d="M14.8695 14.5H14.8785" stroke="#7A7A7A" stroke-width="2" stroke-linecap="round" stroke-linejoin="round"/>
<path d="M9.86951 9.5H9.87849" stroke="#7A7A7A" stroke-width="2" stroke-linecap="round" stroke-linejoin="round"/>
</svg>
